<?xml version="1.0" standalone="no"?>
<!DOCTYPE svg PUBLIC "-//W3C//DTD SVG 20010904//EN"
 "http://www.w3.org/TR/2001/REC-SVG-20010904/DTD/svg10.dtd">
<svg version="1.0" xmlns="http://www.w3.org/2000/svg"
 width="1149.000000pt" height="1149.000000pt" viewBox="0 0 1149.000000 1149.000000"
 preserveAspectRatio="xMidYMid meet">
<metadata>
Created by potrace 1.14, written by Peter Selinger 2001-2017
</metadata>
<g transform="translate(0.000000,1149.000000) scale(0.100000,-0.100000)"
fill="#000000" stroke="none">
<path d="M5427 11464 c-2 -2 -1851 -17 -1904 -15 -13 0 -29 1 -35 1 -7 0 -33
0 -58 0 -25 0 -52 0 -60 0 -8 0 -36 -1 -62 -3 -27 -1 -48 1 -48 6 0 4 -5 5
-12 1 -15 -10 -228 -11 -228 -1 0 4 -8 4 -17 0 -10 -5 -90 -7 -178 -6 -88 2
-169 3 -180 3 -11 0 -40 1 -65 1 -250 5 -430 -2 -503 -17 -12 -3 -44 -7 -71
-10 -28 -3 -53 -7 -57 -9 -7 -5 -58 -14 -94 -18 -11 -1 -22 -5 -25 -9 -3 -3
-18 -8 -35 -11 -86 -15 -411 -136 -426 -159 -3 -5 -16 -10 -27 -11 -12 -1 -22
-5 -22 -9 0 -4 -4 -8 -9 -8 -13 0 -185 -102 -189 -112 -2 -4 -9 -8 -15 -8 -7
0 -23 -9 -37 -20 -14 -11 -56 -43 -95 -72 -38 -28 -75 -57 -81 -63 -6 -5 -33
-29 -60 -51 -96 -82 -244 -239 -310 -330 -10 -14 -34 -45 -51 -67 -18 -23 -33
-48 -33 -54 0 -7 -4 -13 -8 -13 -9 0 -75 -105 -72 -116 1 -4 -2 -10 -8 -13
-14 -10 -152 -285 -152 -304 0 -3 -7 -21 -15 -41 -8 -20 -16 -39 -17 -43 0 -5
-11 -37 -23 -73 -29 -84 -69 -257 -92 -390 -17 -99 -18 -305 -20 -3610 -3
-3772 -5 -3621 47 -3878 34 -167 73 -248 163 -334 53 -51 126 -98 151 -98 9 0
16 -4 16 -10 0 -5 17 -12 37 -16 21 -4 42 -9 47 -12 8 -5 66 -13 91 -13 24 -1
122 11 145 16 14 4 31 7 38 7 6 1 12 5 12 10 0 5 4 7 9 3 5 -3 12 -1 16 5 3 5
13 10 21 10 37 0 155 110 647 602 290 290 532 528 538 528 5 0 8 3 7 7 -2 5
1094 1105 2435 2446 2138 2137 2435 2437 2410 2438 -15 1 -39 2 -53 4 -14 1
-72 6 -130 9 -58 4 -125 9 -150 11 -83 7 -235 17 -305 21 -38 2 -86 6 -105 8
-19 2 -82 7 -140 10 -58 4 -134 9 -170 12 -36 2 -101 7 -145 9 -44 2 -80 5
-80 5 0 1 -22 3 -50 5 -27 2 -90 6 -140 10 -49 3 -121 7 -159 8 l-68 2 -29
-101 c-70 -250 -197 -464 -384 -649 -44 -44 -90 -87 -101 -96 -71 -55 -135
-99 -144 -99 -5 0 -10 -5 -10 -11 0 -5 -4 -7 -10 -4 -5 3 -10 2 -10 -2 0 -9
-4 -11 -125 -71 -48 -23 -105 -48 -126 -55 -22 -6 -39 -16 -39 -20 0 -5 -4 -6
-10 -2 -5 3 -25 -1 -45 -9 -19 -8 -35 -13 -35 -11 0 3 -11 0 -25 -5 -14 -5
-46 -12 -72 -16 -27 -3 -51 -8 -55 -10 -12 -7 -161 -17 -258 -17 -83 0 -315
10 -315 14 0 1 -30 5 -110 13 -69 7 -135 16 -165 22 -14 2 -47 7 -75 10 -27 3
-53 8 -56 10 -4 2 -24 6 -45 10 -22 3 -65 12 -96 19 -32 7 -58 11 -58 9 0 -3
-8 0 -17 5 -10 5 -31 11 -48 14 -16 3 -41 9 -55 12 -14 3 -32 8 -40 10 -8 2
-16 4 -17 5 -3 3 -3 3 -53 14 -19 5 -39 11 -45 14 -5 4 -19 8 -30 9 -17 3 -62
18 -125 41 -8 3 -17 6 -20 7 -35 9 -71 23 -160 62 -25 11 -62 26 -82 34 -21 7
-38 17 -38 21 0 4 -3 7 -7 6 -8 -2 -92 39 -163 79 -79 45 -115 67 -120 73 -3
4 -25 20 -50 37 -78 53 -291 243 -273 243 3 0 -13 21 -34 48 -147 177 -225
417 -218 667 8 278 112 511 320 721 92 92 231 203 291 232 19 8 34 19 34 24 0
4 7 8 15 8 8 0 15 5 15 11 0 5 4 8 9 4 5 -3 12 -1 15 4 4 5 37 24 74 42 37 18
70 37 74 43 4 6 8 7 8 3 0 -5 12 -1 28 7 82 46 381 155 492 181 8 1 58 14 110
29 85 22 236 55 328 71 17 3 45 7 60 10 16 3 44 7 63 9 19 3 48 7 64 10 47 7
145 18 202 21 28 2 55 5 60 7 4 2 43 4 85 4 43 -1 78 2 78 6 0 4 11 3 24 -2
13 -5 26 -7 29 -4 9 10 62 10 75 1 7 -5 12 -6 12 0 0 5 9 9 20 9 11 0 20 -3
20 -6 0 -3 24 -6 53 -6 28 -1 70 -4 92 -7 22 -3 60 -9 85 -13 25 -3 50 -10 55
-15 6 -4 20 -8 30 -7 28 1 207 -67 290 -110 186 -97 345 -225 478 -387 79 -97
77 -94 77 -99 0 -6 45 -75 60 -93 6 -7 8 -13 5 -13 -3 0 5 -17 18 -37 51 -82
116 -267 153 -441 3 -14 9 -20 16 -16 13 8 23 9 198 19 58 3 132 8 165 10 33
2 98 7 144 10 47 3 87 7 89 10 3 3 11 0 19 -6 7 -6 13 -7 13 -2 0 5 10 9 23 9
24 1 182 11 292 20 109 8 163 12 260 19 102 7 152 11 245 19 36 3 98 8 138 11
40 2 78 7 83 10 5 4 9 1 9 -5 0 -6 5 -8 13 -3 6 4 23 8 37 9 144 11 259 20
360 30 30 3 85 6 122 7 38 1 68 4 68 8 0 3 24 6 53 7 68 2 179 10 197 14 12 2
2178 2163 2218 2212 26 33 65 116 81 178 20 74 18 244 -2 264 -4 4 -7 15 -7
24 0 9 -9 35 -20 58 -11 22 -20 46 -20 52 0 6 -4 9 -9 6 -5 -3 -12 4 -15 17
-7 25 -79 107 -95 107 -6 0 -11 4 -11 9 0 22 -200 113 -275 125 -102 17 -331
30 -725 42 -169 6 -3408 13 -3413 8z"/>
<path d="M10838 10044 c-2 -1 -19 -4 -38 -7 -65 -10 -94 -18 -107 -28 -7 -6
-17 -8 -23 -4 -5 3 -10 3 -10 -2 0 -4 -15 -15 -32 -23 -18 -7 -39 -19 -47 -24
-8 -6 -380 -374 -825 -818 -446 -445 -815 -808 -819 -808 -5 0 -5 -4 -2 -10 3
-5 0 -11 -7 -12 -7 0 -274 -265 -593 -588 -319 -323 -586 -588 -593 -588 -7
-1 -10 -6 -7 -12 3 -5 0 -10 -9 -10 -8 0 -16 -4 -18 -10 -5 -16 -1041 -1050
-1052 -1050 -5 0 -7 -2 -5 -5 3 -2 -462 -471 -1033 -1042 -571 -571 -1037
-1042 -1035 -1047 2 -5 27 -10 57 -11 30 -2 107 -6 170 -10 63 -4 140 -8 170
-10 62 -3 219 -12 355 -21 50 -3 126 -7 170 -10 44 -2 107 -6 140 -8 33 -3
110 -7 170 -11 61 -3 148 -8 195 -11 47 -3 121 -7 165 -9 44 -2 80 -4 80 -5 0
-1 34 -3 75 -5 41 -2 111 -6 155 -9 80 -5 113 2 101 23 -4 6 -3 11 1 11 5 0
10 10 10 22 1 13 7 24 13 26 5 2 10 12 10 22 0 10 6 25 13 32 7 7 14 15 14 18
1 18 16 50 23 50 5 0 12 10 16 22 3 12 12 27 18 34 6 6 18 22 26 34 8 13 27
37 43 54 15 17 27 34 27 38 0 5 4 8 8 8 5 0 34 25 65 55 31 30 61 55 67 55 6
0 8 4 5 10 -3 6 -1 10 5 10 7 0 29 13 49 29 20 15 74 50 121 77 47 27 87 51
90 54 3 3 14 7 25 8 11 2 25 8 31 13 26 21 287 107 374 123 14 2 36 7 50 10
14 3 43 8 65 11 22 3 56 8 75 11 73 10 370 18 520 13 18 -1 1577 0 1603 1 9 0
23 0 30 1 37 2 102 -12 142 -31 177 -86 229 -317 104 -463 -45 -53 -106 -92
-159 -103 -19 -4 -466 -8 -992 -8 -634 -1 -959 -4 -961 -11 -2 -5 -3 -64 -3
-129 l1 -120 38 -1 c20 0 37 3 37 8 0 5 5 5 13 0 14 -11 57 -11 75 0 6 5 12 5
12 0 0 -4 18 -9 40 -9 24 -1 37 3 33 9 -4 6 -1 7 6 3 19 -12 61 -14 61 -3 0 6
4 6 13 0 14 -11 57 -11 75 0 6 5 12 5 12 0 0 -4 18 -9 40 -9 24 -1 37 3 33 9
-4 6 -1 7 6 3 19 -12 61 -14 61 -4 0 5 6 6 13 1 17 -11 60 -11 75 0 6 5 12 6
12 1 0 -5 18 -10 40 -10 24 -1 37 3 33 9 -4 6 -1 7 6 3 19 -12 61 -14 61 -3 0
6 4 6 13 0 14 -11 57 -11 75 0 6 5 12 5 12 0 0 -4 18 -9 40 -9 24 -1 37 3 33
9 -4 6 -1 7 6 3 19 -12 61 -14 61 -3 0 6 4 6 13 0 14 -11 57 -11 75 0 6 5 12
5 12 0 0 -4 18 -9 40 -9 24 -1 37 3 33 9 -4 6 -1 7 6 3 19 -12 61 -14 61 -3 0
6 4 6 13 0 14 -11 57 -11 75 0 6 5 12 5 12 0 0 -4 18 -9 40 -9 24 -1 37 3 33
9 -4 6 -1 7 6 3 19 -12 61 -14 61 -3 0 6 4 6 13 0 14 -11 57 -11 75 0 6 5 12
5 12 0 0 -4 18 -9 40 -9 24 -1 37 3 33 9 -4 6 -1 7 6 3 19 -12 61 -14 61 -4 0
5 6 6 13 1 17 -11 58 -12 79 -1 10 4 19 4 23 -1 3 -6 13 -9 23 -9 99 4 223
-90 259 -197 19 -56 21 -155 3 -200 -16 -43 -73 -125 -86 -125 -7 0 -14 -6
-17 -14 -6 -16 -84 -53 -125 -60 -15 -2 -458 -5 -984 -5 l-958 -1 0 -129 0
-129 959 0 c1019 0 995 1 1071 -48 92 -59 133 -130 138 -242 4 -62 1 -80 -22
-126 -14 -29 -38 -65 -52 -79 -24 -24 -98 -66 -134 -75 -25 -7 -2130 -9 -2130
-2 0 4 -24 8 -52 10 -69 4 -90 6 -108 12 -8 3 -49 12 -90 21 -41 8 -101 22
-134 31 -77 22 -269 97 -277 108 -3 6 -10 10 -15 10 -19 0 -207 108 -224 128
-3 3 -26 21 -51 39 -69 48 -218 206 -270 286 -50 75 -103 175 -94 175 4 0 0
12 -8 28 -8 15 -19 39 -25 53 -11 28 -11 28 -192 15 -36 -3 -110 -8 -165 -11
-55 -3 -131 -8 -170 -11 -38 -2 -103 -6 -143 -8 -40 -2 -76 -6 -79 -9 -3 -3
-16 -2 -29 3 -13 5 -24 6 -24 2 0 -5 -24 -9 -52 -9 -29 -1 -91 -4 -138 -8 -47
-3 -116 -8 -155 -10 -38 -2 -70 -5 -70 -5 0 -1 -30 -3 -66 -4 -37 -2 -72 -7
-78 -10 -6 -4 -11 -2 -11 4 0 6 -5 8 -12 3 -7 -4 -29 -8 -48 -9 -19 -1 -80 -5
-135 -9 -99 -6 -179 -11 -303 -19 -35 -2 -66 -6 -69 -10 -3 -3 -12 -1 -20 5
-7 6 -13 8 -13 3 0 -9 -63 -14 -207 -17 -35 -1 -63 -4 -63 -8 0 -3 -25 -4 -55
-4 -31 1 -58 -1 -60 -4 -2 -3 -37 -6 -79 -6 -42 0 -76 -2 -76 -5 0 -3 -26 -5
-58 -6 -31 0 -100 -4 -152 -8 l-95 -7 -512 -512 c-282 -281 -517 -513 -523
-515 -5 -2 -9 -7 -7 -10 1 -4 -156 -165 -350 -357 -194 -193 -353 -348 -353
-345 0 3 -4 -2 -10 -10 -5 -8 -111 -118 -237 -245 -125 -126 -234 -239 -240
-250 -23 -37 -63 -125 -63 -139 0 -7 -3 -16 -7 -20 -18 -18 -20 -211 -3 -256
1 -3 2 -8 1 -12 0 -4 4 -20 11 -35 6 -15 12 -30 13 -33 9 -27 35 -74 55 -101
28 -38 120 -134 120 -125 0 3 15 -5 34 -18 19 -12 47 -28 62 -33 16 -6 38 -14
49 -19 11 -4 29 -9 40 -10 11 -2 49 -11 85 -19 73 -16 180 -32 285 -41 94 -8
6950 -8 7045 0 96 9 138 13 175 20 17 3 46 8 65 11 47 9 92 16 110 19 9 1 20
5 25 8 6 3 26 9 45 13 19 4 64 16 100 28 36 11 65 18 66 16 0 -2 8 2 17 9 9 8
20 11 26 8 5 -3 11 -2 13 4 2 6 13 12 25 14 12 3 39 13 60 23 21 10 40 18 43
18 12 0 205 100 208 107 2 4 9 8 17 8 36 0 321 211 448 331 34 32 65 59 70 59
4 0 7 4 7 9 0 5 19 29 43 53 23 24 60 66 82 94 22 27 42 51 45 54 3 3 17 21
30 40 13 19 27 37 30 40 14 13 50 70 50 80 0 5 5 10 10 10 6 0 10 7 10 15 0 8
5 15 11 15 5 0 7 5 4 10 -3 6 -2 10 2 10 5 0 17 17 28 38 10 20 26 45 34 55 8
9 10 17 5 17 -5 0 -4 4 1 8 9 6 49 78 51 91 0 3 16 38 34 76 19 39 35 79 37
90 2 10 9 23 16 27 6 4 9 8 5 8 -4 0 4 33 18 72 34 100 79 282 101 408 17 99
18 293 20 3645 2 3801 4 3610 -48 3865 -33 166 -75 248 -173 337 -75 69 -175
116 -271 129 -50 7 -114 12 -117 8z"/>
</g>
</svg>
